/vscmnt/brussel_pixiu_data/_data_brussel/112/vsc11236/PredSimResults/SUBJ10opt3D/weighted-trackIG/worker_04.mot
version=1
nRows=11
nColumns=50
inDegrees=yes
endheader
                time	         pelvis_tilt	         pelvis_list	     pelvis_rotation	           pelvis_tx	           pelvis_ty	           pelvis_tz	       hip_flexion_r	     hip_adduction_r	      hip_rotation_r	        knee_angle_r	       ankle_angle_r	         mtp_angle_r	       hip_flexion_l	     hip_adduction_l	      hip_rotation_l	        knee_angle_l	       ankle_angle_l	         mtp_angle_l	    lumbar_extension	      lumbar_bending	     lumbar_rotation	 ercspn_r/activation	 intobl_r/activation	 extobl_r/activation	    abd_r/activation	    add_r/activation	hamstrings_r/activation	bifemsh_r/activation	glut_max_r/activation	iliopsoas_r/activation	rect_fem_r/activation	  vasti_r/activation	gastroc_r/activation	 soleus_r/activation	tib_ant_r/activation	 ercspn_l/activation	 intobl_l/activation	 extobl_l/activation	    abd_l/activation	    add_l/activation	hamstrings_l/activation	bifemsh_l/activation	glut_max_l/activation	iliopsoas_l/activation	rect_fem_l/activation	  vasti_l/activation	gastroc_l/activation	 soleus_l/activation	tib_ant_l/activation	
          1.84254343	         -4.52113696	          1.04726420	         -6.54660525	          1.89781973	          0.82570382	          0.01456542	        -13.63007175	         -0.33782267	         -0.42285380	         -6.31962983	          9.75944326	         25.21098837	         30.07117009	         -1.32771539	         -5.27465052	         -5.49331746	          2.80784577	          0.25409248	         -5.98141073	          0.95856503	          6.67756975	          0.04972987	          0.01000000	          0.01000002	          0.07594906	          0.01000012	          0.01155014	          0.25029248	          0.02425379	          0.49807264	          0.01000011	          0.01000001	          0.33804423	          0.27563310	          0.02537714	          0.12099096	          0.16342920	          0.01000007	          0.01000012	          0.14293690	          0.12401470	          0.17753679	          0.02789152	          0.11924051	          0.01000008	          0.01000003	          0.01208628	          0.01000005	          0.26623614	
          1.85482705	         -4.57259979	          1.00542690	         -6.67777789	          1.91302849	          0.82401975	          0.01404646	        -13.77178172	         -0.45478911	         -0.78052897	         -7.90075319	          9.30906952	         26.86809382	         30.21514133	         -1.18838044	         -5.21952406	         -7.31017628	          2.51183883	          0.25499110	         -5.73924706	          0.45941682	          7.06464693	          0.09753234	          0.01000001	          0.01000001	          0.06304255	          0.01000110	          0.01398788	          0.20775875	          0.02537684	          0.45700874	          0.01000016	          0.01000002	          0.31126024	          0.27029246	          0.02106464	          0.10675203	          0.13565665	          0.01000008	          0.01000000	          0.23176062	          0.10420127	          0.14736810	          0.06259369	          0.09897720	          0.01000017	          0.01000001	          0.01545530	          0.01204760	          0.28729756	
          1.86711067	         -4.61120141	          0.98982135	         -6.78276427	          1.92868946	          0.82253929	          0.01345583	        -13.78872792	         -0.61700246	         -1.15752643	         -9.76468868	          8.70645340	         28.56529044	         30.14074833	         -1.06384977	         -5.02919165	         -9.01580642	          2.16960737	          0.24232460	         -5.45824506	         -0.07617903	          7.42820246	          0.11204486	          0.01000000	          0.01000003	          0.05232933	          0.01838282	          0.01705266	          0.17245304	          0.02106441	          0.37934703	          0.01000006	          0.01000001	          0.27815632	          0.25893808	          0.01748499	          0.08861100	          0.11260369	          0.01000004	          0.01000014	          0.19237607	          0.08770612	          0.12232510	          0.10354913	          0.08215737	          0.01000004	          0.01000001	          0.01282889	          0.01000029	          0.35134830	
          1.87939430	         -4.63900980	          0.99524413	         -6.85357919	          1.94461838	          0.82137477	          0.01272245	        -13.63568389	         -0.82243941	         -1.55753763	        -11.95420998	          7.90915822	         30.26122741	         29.87677309	         -0.92576867	         -4.88798771	        -10.41152825	          1.72383755	          0.23353771	         -5.15890264	         -0.62685045	          7.76077216	          0.12163261	          0.01000000	          0.01000002	          0.04343667	          0.01525899	          0.01415670	          0.14314704	          0.01748481	          0.31488217	          0.01000011	          0.01000001	          0.23088744	          0.24228450	          0.01451366	          0.10234835	          0.09346823	          0.01000005	          0.04894122	          0.17445950	          0.07691168	          0.10153767	          0.11663647	          0.06819584	          0.01000005	          0.01000002	          0.01064881	          0.01000001	          0.40604573	
          1.89167792	         -4.65726635	          1.00049195	         -6.88961376	          1.96059378	          0.82062322	          0.01185722	        -13.27148479	         -1.04903353	         -1.98304238	        -14.50354823	          6.89299291	         31.85573213	         29.53376893	         -0.78690420	         -4.84711772	        -11.69010433	          1.28905566	          0.22186620	         -4.86578072	         -1.16957885	          8.05499050	          0.14868558	          0.01000000	          0.01000001	          0.03605520	          0.01266694	          0.01923984	          0.11882121	          0.01451352	          0.26137223	          0.01000006	          0.01000000	          0.19165125	          0.22158225	          0.01204726	          0.10593876	          0.07758458	          0.01000004	          0.09111773	          0.20376871	          0.06759575	          0.08428275	          0.11796384	          0.05660688	          0.01000005	          0.01141431	          0.01000005	          0.01000004	          0.43339663	
          1.90396154	         -4.66688289	          1.00803642	         -6.89457770	          1.97643914	          0.82036535	          0.01088137	        -12.66486125	         -1.30129726	         -2.43573302	        -17.43062714	          5.66814886	         33.17372586	         29.18244854	         -0.64636022	         -4.88304933	        -12.97252798	          0.99645433	          0.20952920	         -4.59245486	         -1.70668340	          8.30898248	          0.17089813	          0.01000000	          0.01000002	          0.02992810	          0.09121148	          0.02774377	          0.09862926	          0.01204716	          0.21695557	          0.01000004	          0.01000000	          0.15908271	          0.19072254	          0.01000001	          0.10182213	          0.06440013	          0.01000004	          0.11939940	          0.21698936	          0.06535419	          0.06996008	          0.11276948	          0.04698731	          0.01000004	          0.05535008	          0.01000003	          0.01000001	          0.45246894	
          1.91624517	         -4.67042323	          1.01492675	         -6.86869481	          1.99201152	          0.82070654	          0.00982557	        -11.79035517	         -1.57653025	         -2.93344421	        -20.74030471	          4.26607346	         33.95063947	         28.80493433	         -0.50200281	         -4.96132395	        -14.21073998	          0.92581520	          0.19499948	         -4.34910538	         -2.23483792	          8.52099995	          0.18278166	          0.01000000	          0.01000002	          0.02484223	          0.17050168	          0.04176341	          0.08186876	          0.01000002	          0.18008692	          0.01000003	          0.01000000	          0.13204876	          0.15831183	          0.01000001	          0.09569812	          0.05345621	          0.01000004	          0.13643382	          0.22785616	          0.06561746	          0.05807136	          0.10020057	          0.03900246	          0.01000003	          0.09586793	          0.01000002	          0.01000001	          0.44131365	
          1.92852879	         -4.67041589	          1.01336676	         -6.81219470	          2.00722266	          0.82169478	          0.00872376	        -10.63744867	         -1.87233488	         -3.48917676	        -24.42479975	          2.74015431	         33.91366799	         28.35524548	         -0.35354755	         -5.04046874	        -15.32645012	          1.17051652	          0.19396335	         -4.14197154	         -2.74657046	          8.68996098	          0.18984634	          0.01000001	          0.01000002	          0.02062063	          0.23340933	          0.04516067	          0.06795673	          0.01000002	          0.14948359	          0.01000003	          0.01000000	          0.10960886	          0.13140888	          0.01000001	          0.08872602	          0.04437205	          0.01000004	          0.14783353	          0.22395592	          0.06831894	          0.04820297	          0.08375982	          0.03237452	          0.01000003	          0.13417056	          0.01000003	          0.01000001	          0.39091709	
          1.94081241	         -4.66930566	          0.99202824	         -6.72374301	          2.02202787	          0.82333404	          0.00760956	         -9.22248387	         -2.18269321	         -4.08785769	        -28.39697612	          0.97526389	         33.09329651	         27.77512363	         -0.20270448	         -5.07773307	        -16.20573577	          1.72198681	          0.24371788	         -3.97411028	         -3.23124351	          8.81393105	          0.19070129	          0.01000001	          0.01000003	          0.01711643	          0.28760141	          0.05524166	          0.05733691	          0.01000002	          0.12408089	          0.01000002	          0.01000000	          0.09098232	          0.10907772	          0.01000000	          0.07681327	          0.03683162	          0.01000004	          0.14837302	          0.20376478	          0.07122561	          0.04001157	          0.06952609	          0.02687291	          0.01000003	          0.16175360	          0.01000004	          0.01000002	          0.32900285	
          1.95309603	         -4.66908744	          0.93513373	         -6.59975840	          2.03639679	          0.82557423	          0.00651020	         -7.58427567	         -2.49096069	         -4.69611697	        -32.51641554	         -1.14771195	         31.58666566	         27.02383318	         -0.06027204	         -5.05192236	        -16.74340396	          2.40413145	          0.35445648	         -3.85027775	         -3.67333656	          8.89022357	          0.18389027	          0.01000002	          0.01000004	          0.01420773	          0.30734702	          0.05224239	          0.05670553	          0.01000002	          0.10299503	          0.01000003	          0.01000000	          0.07552111	          0.09054144	          0.01000000	          0.06539405	          0.03057259	          0.01000004	          0.14085931	          0.16913791	          0.07497588	          0.03321218	          0.05771112	          0.02230622	          0.01000002	          0.16682888	          0.01000002	          0.01000001	          0.27861693	
          1.96537966	         -4.67027724	          0.82846828	         -6.43709802	          2.05031771	          0.82828937	          0.00544154	         -5.77555820	         -2.77620089	         -5.26922247	        -36.63171304	         -3.68545057	         29.49841298	         26.11127225	          0.05578058	         -4.96172290	        -16.93676621	          3.08158304	          0.50437831	         -3.77552033	         -4.05815362	          8.91700272	          0.18786270	          0.01000013	          0.01000004	          0.01179332	          0.27885156	          0.09216666	          0.06542202	          0.01355777	          0.08549243	          0.01000002	          0.01000000	          0.06268733	          0.07515515	          0.01000008	          0.05428129	          0.02537720	          0.01000005	          0.13201670	          0.14039525	          0.08122482	          0.02756825	          0.04790393	          0.01851559	          0.01000002	          0.15341698	          0.01000003	          0.01000001	          0.23960396	
